<?xml version="1.0" encoding="UTF-8"?>
<svg xmlns="http://www.w3.org/2000/svg" version="1.1" viewBox="0 0 64 64">
  <defs>
    <style>
      .cls-1, .cls-2 {
        fill: #fff;
      }

      .cls-3 {
        fill: #000ce3;
      }

      .cls-4 {
        display: none;
      }

      .cls-2 {
        stroke: #fff;
        stroke-miterlimit: 10;
        stroke-width: 2px;
      }
    </style>
  </defs>
  <!-- Generator: Adobe Illustrator 28.7.1, SVG Export Plug-In . SVG Version: 1.2.0 Build 142)  -->
  <g>
    <g id="Layer_2" class="cls-4">
      <rect class="cls-3" x="-4.6" y="-3.1" width="79.1" height="70.3"/>
    </g>
    <g id="Layer_1">
      <g>
        <path class="cls-2" d="M17,38.5c-6.3,0-9.2,2.9-9.2,9.2v6.2c0,3.1.7,5.4,2.2,6.9,1.5,1.5,3.8,2.3,7,2.3,6.2,0,9.1-2.9,9.1-9.1v-6.2c0-6.2-2.8-9.1-9-9.1ZM16.9,59c-1.7,0-3-.5-3.9-1.3-.9-.9-1.3-2.2-1.3-3.8v-6.2c0-3.2,1.9-5.1,5.2-5.1s2.9.4,3.7,1.3c.9.9,1.3,2.2,1.3,3.9v6c0,3.4-1.8,5.2-5.1,5.2Z"/>
        <path class="cls-2" d="M50.5,38.5c-6.3,0-9.2,2.9-9.2,9.2v6.2c0,3.1.7,5.4,2.2,6.9,1.5,1.5,3.8,2.3,7,2.3,6.2,0,9.1-2.9,9.1-9.2v-6.2c0-6.2-2.8-9.1-9-9.1ZM50.4,59c-1.7,0-3-.4-3.9-1.3-.9-.9-1.3-2.2-1.3-3.8v-6.1c0-3.3,1.9-5.1,5.2-5.1s2.9.4,3.7,1.3c.9.9,1.3,2.2,1.3,3.9v6c0,3.4-1.8,5.2-5.1,5.2Z"/>
        <path class="cls-1" d="M58.1,18.4c-5.4-5.5-17.4-6.5-37-6.5h-9.2l-.2-1.4c-.7-4.4-3.3-8.3-6.7-10.5l-2,5.8c1.9,1.8,2.8,4.2,2.8,7.3v15.4h-3.1v5.4h3.1v2.9h5.4v-2.1h50.5v-7.1c0-3-1.6-7.2-3.6-9.2ZM54.5,29.3H11.2v-.7s0-1.7,0-1.7v-9.7h9.6c1.4,0,2.8,0,4.5,0,10.1-.2,21.6-.4,27,4.9,1.6,1.5,2.3,3.4,2.3,5.6v1.7Z"/>
      </g>
    </g>
  </g>
</svg>