<?xml version="1.0" encoding="UTF-8"?>
<svg id="Layer_1" xmlns="http://www.w3.org/2000/svg" viewBox="0 0 64 64">
  <defs>
    <style>
      .cls-1 {
        fill: #bc002d;
      }

      .cls-2 {
        fill: #fff;
      }
    </style>
  </defs>
  <g>
    <circle class="cls-2" cx="23.5" cy="59.5" r="2"/>
    <path class="cls-1" d="M23.5,55c-2.49,0-4.5,2.01-4.5,4.5s2.01,4.5,4.5,4.5,4.5-2.01,4.5-4.5-2.01-4.5-4.5-4.5h0Z"/>
  </g>
  <path class="cls-1" d="M47.12,39.73c1.34,0,2.56-.78,3.13-1.98l13.47-28.63c.43-.91.36-1.96-.17-2.81-.55-.85-1.47-1.35-2.47-1.35H11.37L9.04,0H0v4.96h5.9l15.19,32.27-5.01,10.67c-.56,1.18-.47,2.54.23,3.65s1.9,1.76,3.2,1.76h35.85v-4.96H21.34l4.05-8.62h21.72ZM13.71,9.93h44.15l-11.69,24.84h-20.77L13.71,9.93Z"/>
  <g>
    <circle class="cls-2" cx="49.5" cy="59.5" r="2"/>
    <path class="cls-1" d="M49.5,55c-2.49,0-4.5,2.01-4.5,4.5s2.01,4.5,4.5,4.5,4.5-2.01,4.5-4.5-2.01-4.5-4.5-4.5h0Z"/>
  </g>
</svg>