<?xml version="1.0" encoding="UTF-8"?>
<svg id="Layer_1" xmlns="http://www.w3.org/2000/svg" viewBox="0 0 45 45">
  <defs>
    <style>
      .cls-1 {
        fill: #bc002d;
      }
    </style>
  </defs>
  <path class="cls-1" d="M44.18,39.83c.21.47.24.86-.42,1.03-1.99.49-3.91.77-5.45-1.05-.28-.33-.52-.28-.73,0-.98,1.35-2.11,2.49-3.74,3.1-.4.16-.79.4-.86,1.03-.03.4-.66.56-1.1.7-1.26.4-2.2,0-2.67-1.21-.16-.39-.49-.14-.72-.39.73-.28.79-.86.75-1.53-.03-.82,0-1.65,0-2.47,0-.14-.02-.33.05-.42.89-.81.72-2.07,1.29-3,.26-.42,0-.68-.21-.98-.75-1.03-1.08-2.17-.84-3.44.19-1.02.87-1.3,1.73-.7.24.18.44.39.82.25.44-.16.72.18.98.51.09.12.24.26.44.19.16-.07.12-.25.14-.37.07-.91.44-1.75.72-2.61.12-.39.26-.93.93-.51.42.26.54-.21.65-.46.49-1.14.94-2.3,1.36-3.45.24-.67-.38-1.19-.37-1.84,0-.3-.16-.61-.14-.93.14-2.31-.65-4.31-1.9-6.19-.19-.3-.31-.63-.45-.93.19-.21.38-.14.44-.05.58.86,1.49,1.37,2.17,2.09.49.53.75,1.19.73,1.95,0,.28.03.56.1.84.05.19.19.39.42.33.21-.03.14-.28.16-.44.38-2.68-.19-5.14-1.77-7.33-.58-.79-1.43-1.17-2.38-1.21-1.54-.05-3.08-.16-4.37-1.07-1.42-.98-2.52-2.3-3.65-3.59-.19-.23-.35-.58.03-1.1.07,1.67,1.4,2.1,2.39,2.49,1.14.44,2.55.86,3.72-.21.35-.32.3-.82.07-1.16-.52-.72-1.15-1.31-1.42-2.24-.14-.49-.75-.75-1.22-1-.96-.47-1.92-.93-2.9-1.35-.26-.11-.47-.3-.72-.42-.14-.09-.14-.25-.09-.39.05-.09.17-.09.3-.09,4.04.35,6.83,2.47,8.56,6.08.49,1,1.26,1.79,1.92,2.65,1.43,1.81,2.99,3.51,4.25,5.45.63.96.72,1.02,1.19,0,.42-.91.59-1.91.84-2.89.12-.49-.3-.84-.49-1.23-.19-.42-.21-.79-.09-1.42,1.12,2.21,1.64,4.24,1,6.5-.28.95-.09,1.96.02,2.96.35,3.09,1.5,6.05,1.29,9.24h.05c-.19,3.16-1.21,5.94-3.18,8.38-.14.18-.3.33-.44.51-.03.03-.03.11-.05.21.98.16,1.76.4,2.06,1.61.1.46.56,1,.79,1.54Z"/>
  <path class="cls-1" d="M17.93,44.64l.07.04c-1.52-.42-3.15-.51-4.49-1.58-1.31-1.02-2.25-2.31-3.06-3.68-1.01-1.72-2.24-3.23-3.5-4.75-1.31-1.58-2.6-3.17-3.69-5.05-.44.49-.86.95-.91,1.63-.02.33-.12.61-.26.89-.45.89-.58,1.74.16,2.59.28.32.19.79,0,1.35-1.01-2.19-1.61-4.28-.94-6.59.3-1.03.17-2.14-.1-3.21-.26-1.07-.17-2.19-.52-3.26C.16,21.36.02,19.64,0,17.89c-.03-3.47,1.1-6.49,3.3-9.13.16-.19.3-.39.51-.67-.8-.07-1.61-.16-1.89-.86-.35-.88-.94-1.61-1.19-2.51-.1-.37.1-.49.37-.65,1.57-.98,4.14-.67,5.43.74.47.51.65.47,1.1-.09.98-1.19,2.04-2.35,3.58-2.86.49-.16.73-.47.82-1.03.03-.28.65-.54,1.03-.67,1.52-.46,2.59.05,3.22,1.44.03.09.09.16.02.21-1.05.98-.38,2.26-.54,3.38-.09.6-.03,1.17-.49,1.65-.45.49-.16,1.24-.54,1.75-.54.74-.23,1.28.19,2,.59,1.02,1.15,2.17.45,3.45-.19.35-.51.7-.86.53-.77-.37-1.73-.21-2.38-.79-.68-.6-.79-.04-.84.39-.1.89-.42,1.7-.75,2.51-.1.26-.23.68-.72.3-.24-.21-.51-.05-.66.28-.51,1.16-1.07,2.3-1.4,3.52-.07.26-.09.49.03.74.42.88.37,1.82.4,2.77.07,1.75.54,3.38,1.54,4.86.33.49.66.95.49,1.74-1.19-1.45-3.15-2.19-3.08-4.42,0-.26-.14-.67-.42-.67-.37,0-.24.44-.26.68-.21,2.42.28,4.66,1.7,6.68.54.77,1.22,1.14,2.13,1.33,1.45.3,3.01.05,4.35.91.47.3.98.56,1.38.96.79.77,1.52,1.6,2.32,2.33.47.42.44.98.61,1.49.07.19-.07.26-.24.25-.21-.02-.17-.16-.12-.3.19-.49-.09-.81-.42-1.1-1.22-1.07-2.67-1.54-4.26-1.54-.63,0-1.17.39-1.47.88-.33.54.14,1,.49,1.4.37.4.65.82.82,1.37.37,1.05,1.36,1.38,2.25,1.79.72.32,1.36.75,2.13.98.52.16.91.53,1.17,1.02-.56.26-.94-.16-1.4-.28Z"/>
</svg>