<?xml version="1.0" encoding="UTF-8"?>
<svg xmlns="http://www.w3.org/2000/svg" version="1.1" viewBox="0 0 64 64">
  <defs>
    <style>
      .cls-1 {
        fill: #fff;
      }

      .cls-2 {
        fill: #3220ff;
      }

      .cls-3 {
        display: none;
      }
    </style>
  </defs>
  <!-- Generator: Adobe Illustrator 28.7.1, SVG Export Plug-In . SVG Version: 1.2.0 Build 142)  -->
  <g>
    <g id="Layer_2" class="cls-3">
      <rect class="cls-2" x="-23.7" y="-8.7" width="113.3" height="80.6"/>
    </g>
    <g id="Layer_1">
      <path class="cls-1" d="M63.9,20.8l-5.5-5.4c-.3-.3-.6-.6-.9-.9-.3-.3-.6-.6-.9-.8-7-6.2-13-6.9-18.9-2.2-.2.2-.4.3-.6.5-.4.3-.8.7-1.2,1.2l-3.9,3.9-3.9-3.9c-.5-.5-.9-.8-1.2-1.1-.2-.2-.4-.3-.6-.5-5.9-4.7-12-4-18.9,2.2-.3.2-.5.5-.8.7h0c-.3.4-.6.7-.9,1L.1,20.8l27.9,27.8-2.6,2.6,3.9,3.9,2.7-2.7,2.7,2.7,3.9-3.9-2.6-2.6,27.9-27.8ZM32.9,43.8l-.9.9-.9-.9-.7-.6-12.6-12.6h0s-1.5-1.5-1.5-1.5l-8.3-8.4,1.6-1.6c2.7-2.7,5.2-4.2,7.6-4.7,2.7-.5,5.2.3,7.3,2.4l3.8,3.8-1.6,1.6,3.9,3.9,1.5-1.5,1.5,1.5,3.9-3.9-1.6-1.6,3.8-3.8c2.1-2.1,4.6-2.9,7.3-2.4,2.4.5,4.9,2,7.6,4.7l1.5,1.6-9.9,9.9h0s-13.2,13.2-13.2,13.2Z"/>
      <rect class="cls-1" x="33.2" y="22" width="5.6" height="5.6" transform="translate(-7 32.7) rotate(-45)"/>
      <rect class="cls-1" x="25.3" y="22" width="5.6" height="5.6" transform="translate(-9.4 27.1) rotate(-45)"/>
      <rect class="cls-1" x="35.9" y="52.4" width="5.5" height="5.5" transform="translate(-27.6 43.4) rotate(-45)"/>
      <rect class="cls-1" x="22.6" y="52.4" width="5.5" height="5.5" transform="translate(-31.5 34.1) rotate(-45)"/>
    </g>
  </g>
</svg>