<?xml version="1.0" encoding="UTF-8"?>
<svg xmlns="http://www.w3.org/2000/svg" version="1.1" viewBox="0 0 64 64">
  <defs>
    <style>
      .cls-1 {
        fill: #fff;
      }

      .cls-2 {
        fill: #2d00f1;
      }

      .cls-3 {
        display: none;
      }
    </style>
  </defs>
  <!-- Generator: Adobe Illustrator 28.7.1, SVG Export Plug-In . SVG Version: 1.2.0 Build 142)  -->
  <g>
    <g id="Layer_2" class="cls-3">
      <rect class="cls-2" x="-6.5" y="-2.9" width="77.3" height="74.6"/>
    </g>
    <g id="Layer_1">
      <g>
        <path class="cls-1" d="M32.1,0c-7,0-10.3,3.3-10.3,10.2v6.8c0,3.4.8,6,2.5,7.6,1.7,1.7,4.3,2.5,7.8,2.5,6.7,0,9.9-3.1,10.1-9.6v-7.4c0-6.9-3.2-10.2-10-10.2ZM32,22.5c-1.8,0-3.2-.5-4.2-1.4-1-1-1.4-2.4-1.4-4.1v-6.8c0-3.5,2.1-5.5,5.6-5.5s3.1.5,4,1.4c.9,1,1.4,2.4,1.4,4.2v6.7c0,3.7-1.9,5.6-5.5,5.6Z"/>
        <path class="cls-1" d="M53.4,51.4l-1.2-1.2v-3.6c0-.6-.1-1.2-.2-1.9,0-.6-.2-1.2-.3-1.7v-.3c-1.6-6.5-6.2-9.6-14.5-9.6h-10.4c-8.3,0-12.9,3-14.5,9.6v.2c-.2.5-.3,1.2-.4,1.9-.1,1-.2,2.1-.2,3.2v3.3h-3.4v6h3.4v6.6h6.2v-6.6h27.8v6.6c.1,0,.3,0,.3,0h6v-6.6h3.4v-6h-2.1ZM46.1,49.5l-.2,1.9h-27.9v-2c0-.4,0-.8,0-1.3,0-.8,0-1.6.2-2.4.5-2.4,2.3-6.5,8.9-6.4h10.2c6.5,0,8.3,3.9,8.8,6.3.2.8.3,1.6.3,2.6s0,.9,0,1.3Z"/>
      </g>
    </g>
  </g>
</svg>