<?xml version="1.0" encoding="UTF-8"?>
<svg id="Layer_1" xmlns="http://www.w3.org/2000/svg" viewBox="0 0 64 60">
  <defs>
    <style>
      .cls-1 {
        fill: #bc002d;
      }

      .cls-2 {
        fill: #fff;
      }
    </style>
  </defs>
  <g>
    <path class="cls-2" d="M32,28.5c-7.17,0-13-5.83-13-13s5.83-13,13-13,13,5.83,13,13-5.83,13-13,13Z"/>
    <path class="cls-1" d="M32,5c5.79,0,10.5,4.71,10.5,10.5s-4.71,10.5-10.5,10.5-10.5-4.71-10.5-10.5,4.71-10.5,10.5-10.5M32,0c-8.56,0-15.5,6.94-15.5,15.5s6.94,15.5,15.5,15.5,15.5-6.94,15.5-15.5S40.56,0,32,0h0Z"/>
  </g>
  <g>
    <path class="cls-2" d="M2.64,57.5c1.25-11.23,10.8-20,22.36-20h14c11.56,0,21.11,8.77,22.36,20H2.64Z"/>
    <path class="cls-1" d="M39,40c9.3,0,17.14,6.38,19.37,15H5.63c2.23-8.62,10.07-15,19.37-15h14M39,35h-14C11.19,35,0,46.19,0,60h0s64,0,64,0h0c0-13.81-11.19-25-25-25h0Z"/>
  </g>
</svg>