<?xml version="1.0" encoding="UTF-8"?>
<svg xmlns="http://www.w3.org/2000/svg" version="1.1" viewBox="0 0 595.3 595.3">
  <defs>
    <style>
      .cls-1 {
        fill: none;
        stroke: #1c3663;
        stroke-miterlimit: 10;
        stroke-width: 3px;
      }

      .cls-2 {
        fill: #1c3663;
      }
    </style>
  </defs>
  <!-- Generator: Adobe Illustrator 28.7.1, SVG Export Plug-In . SVG Version: 1.2.0 Build 142)  -->
  <g>
    <g id="Layer_1">
      <circle class="cls-1" cx="297.6" cy="297.6" r="172.5"/>
      <g>
        <path class="cls-2" d="M342.5,235.5c0,30-14.9,45-44.7,45-30.3,0-45.3-15-45.2-44.9v-27.2c0-30,15.1-45,45.4-45.1,29.8,0,44.7,15,44.7,45l-.2,27.2ZM279.6,235.4c0,12.1,6,18.1,18.1,18.1s17.8-6,18-18.1l-.3-26.8c.2-12.1-5.7-18.2-17.5-18.2s-18.3,6-18.3,17.9v27.2Z"/>
        <g>
          <path class="cls-2" d="M209.1,345.9c.3-2.9.8-5.7,1.4-8.3M384.8,337.3c0,0,0,.2,0,.3.5,2.3,1,4.8,1.3,7.4.4,2.8.7,5.7.8,8.7"/>
          <path class="cls-2" d="M387.1,364.5v-10.9c-.2-3-.5-5.9-.9-8.7-.3-2.5-.7-5-1.3-7.4,0,0,0-.2,0-.3-6.9-30.3-29-45.5-66.3-45.5l-41.6-.3c-37.5,0-59.6,15.3-66.4,45.7,0,0,0,.2,0,.3-.6,2.6-1.1,5.4-1.4,8.3-.5,4.4-.8,9-.8,13.9v4.7h-13.6v41.1h13.6v26.4h41.2c0-.1.5-.1.5-.1l.5-26.3h94.4l.5,26.3h.5c0,.1,41.1.1,41.1.1v-26.4h13.7v-41.1h-13.5ZM249.8,364.5c-.1-1.5-.2-3-.2-4.6,0-2.8.2-5.5.7-7.8,2.5-12.8,11.5-19.1,27.1-18.9l40.9-.4c15.3.1,24.2,6.4,26.8,18.8.6,2.6.8,5.5.8,8.6s0,2.9-.2,4.3h-95.9Z"/>
        </g>
      </g>
    </g>
  </g>
</svg>